<svg width="293" height="501" viewBox="0 0 293 501" fill="none" xmlns="http://www.w3.org/2000/svg">
<g clip-path="url(#clip0_830_161)">
<path d="M7.00007 179.1C17.5001 165.5 46.6001 139.7 46.6001 139.7L60.6001 157.3C60.6001 157.3 49.9001 167.7 35.7001 179.4C21.6001 191.1 22.9001 188.7 24.3001 191.5C25.2001 193.4 26.2001 195.2 27.1001 197C25.8001 199.9 15.4001 210 10.9001 209.8C9.70007 208.1 4.80007 201.8 3.70007 199.9C-1.29993 191.7 -2.09993 190.8 7.00007 179.1Z" fill="#F2B4A3"/>
<path d="M73.1004 465.9C73.1004 465.9 73.1004 470.9 73.7004 475.3C74.3004 479.7 74.8004 487.8 73.2004 491.6C72.1004 494.3 70.0004 500.2 56.9004 500.2C42.2004 500.2 41.7004 490.1 41.6004 488.2C41.3004 483.6 44.0004 479.8 44.0004 479.8L48.1004 465.8H73.0004L73.1004 465.9Z" fill="#1F66AC"/>
<path d="M181.7 458.8C183.6 459 182.7 463.4 180.3 465C177.5 466.9 172.1 466.6 169.1 466.2C161.7 465.4 156.9 464.8 151.4 464.5C146 464.2 137 463 133.4 462.4C126.4 461.2 125.7 459.7 125.7 459C125.8 457.7 125.7 451.9 130.9 452.8C134.5 453.4 181.1 458.7 181.1 458.7H181.7" fill="#1F66AC"/>
<path d="M63.1 445C47.9 444 49.3 457.8 44.4 473.4C41.5 482.8 40.6 486.1 45.3 491.6C49.9 497 66.8 498.6 71.1 488.9C73.7 483.2 73 480.1 73 471.7C73 463.4 76.8 445.8 63 444.9" fill="#193965"/>
<path d="M52.6002 448.4C54.5002 440.2 53.9002 435 53.9002 435C54.9002 424 53.3002 399.7 53.1002 390.5L82.8002 388.7C81.9002 394 75.7002 421.5 72.2002 441.2C71.9002 442.7 72.7002 452.3 72.6002 452.7C71.5002 461.7 61.5002 462 57.8002 461C50.7002 459.2 51.3002 453.7 52.6002 448.3" fill="white"/>
<path d="M153 437.9C159.9 445 180.1 451 181.3 456.4C181.3 456.4 184.9 464.9 170 463.3C168.4 463.1 135.1 461.5 128 457.7C124.5 455.8 128.4 445.9 128.3 440.3C128.3 439.9 128.3 438.9 128.3 438.4C128.3 438.1 129 437.2 129.6 437.2C135.1 437.2 139.9 441.8 145.4 442.3C148.5 442.3 153 441.3 152.9 437.9" fill="#193965"/>
<path d="M151.7 386C151.7 401.4 151.9 402.4 149.6 422C149 427.3 150.1 430.8 151.1 434.7C151.4 435.8 152.1 436.9 153.1 437.9C153.1 441.3 148.6 442.2 145.6 442.3C139.9 441.8 134.5 439.5 129 438.4C128.5 421.5 127.6 398 127.4 394.1L151.8 386.1L151.7 386Z" fill="white"/>
<path d="M75.3008 209.4C74.6008 212.9 59.5008 240 57.9008 259.7C54.2008 307.3 49.1008 346.4 49.4008 371.8C50.1008 431.1 47.8008 450.6 47.8008 450.6C47.8008 450.6 65.7008 457.4 77.7008 453C82.6008 434.8 90.5008 374.6 95.4008 353.8C100.601 331.8 104.101 305.3 104.101 305.3L115.701 349.8L126.301 436.9C126.301 436.9 137.701 441.3 156.201 435.1C156.201 435.1 159.001 362.4 159.201 348.3C159.401 334.2 158.101 262.3 149.801 225.5C149.401 223.8 148.301 212.1 148.301 212.1C138.201 220.3 88.7008 218.5 75.4008 209.4" fill="#69AFE0"/>
<g style="mix-blend-mode:multiply" opacity="0.5">
<path d="M104.101 305.3L108.101 281.1C108.101 281.1 121.901 282.3 132.001 270C132.001 270 132.201 281.8 112.801 286.9L107.701 307.4L115.701 349.8L104.101 305.3Z" fill="#69AFE0"/>
</g>
<path d="M292.2 97.5L253 90.3L260.1 97.7L239 93.9L267.4 104.5L263.7 96.2L292.2 97.5Z" fill="#D7E5F5"/>
<path d="M264.1 118.6L241.8 105.9L242.4 110.2L234.2 106.6L245.1 116.1L245.4 110.8L264.1 118.6Z" fill="#D7E5F5"/>
<path d="M266.501 75.6001L240.701 81.1001L240.101 75.9001L266.501 75.6001Z" fill="#D7E5F5"/>
<path d="M253.8 56.2L236.9 65.3L235.5 61.9L253.8 56.2Z" fill="#D7E5F5"/>
<path d="M252.001 0L229.301 32.8L229.001 22.6L216.801 40.1L229.501 12.6L232.701 21.1L252.001 0Z" fill="#D7E5F5"/>
<path d="M217.2 4.8999L210.3 29.6999L207.7 26.1999L204.4 34.4999L205.5 20.0999L209.4 23.6999L217.2 4.8999Z" fill="#D7E5F5"/>
<path d="M249.201 33.7L227.101 48L230.301 52.2L249.201 33.7Z" fill="#D7E5F5"/>
<path d="M66.6002 60.7C66.6002 60.7 58.9002 111.6 75.4002 126.3C75.4002 126.3 83.1002 139.6 107.5 139C125.6 138.6 133.6 128.8 133.6 128.8C133.6 128.8 147.5 82.2 127 51.8L91.4002 44L66.7002 60.6L66.6002 60.7Z" fill="#1F2C53"/>
<path d="M116.5 111.1C116.5 111.1 115.8 120.9 118.1 122.5C120.4 124.1 123.4 123.9 123.4 123.9C123.4 123.9 128.6 136.1 116.1 138.9C103.6 141.7 94.6 128 91.5 123C91.5 123 96.4 122.7 97.3 119.8C98.6 115.8 98 110.8 98 110.8L116.5 111.1Z" fill="#F2B4A3"/>
<g style="mix-blend-mode:multiply" opacity="0.5">
<path d="M103.001 122.7C99.7006 121.4 97.6006 118.9 97.6006 118.9C98.5006 115.1 98.0006 110.8 98.0006 110.8L116.501 111.1C116.501 111.1 116.101 116.8 116.901 120.2C116.801 120.4 114.901 127.4 102.901 122.7" fill="#F2B4A3"/>
</g>
<path d="M77.5002 90.4002C80.5002 107.6 95.9002 118 109.5 116.8C121.5 115.7 133.6 98.2002 130.6 81.0002C126.8 59.3002 112.5 47.9002 97.8002 50.5002C83.1002 53.1002 73.2002 66.6002 77.4002 90.3002" fill="#F2B4A3"/>
<path d="M129.3 79.1001C129.3 79.1001 130.7 75.8001 134.3 76.3001C136.8 76.6001 138.3 84.1001 135.7 88.6001C133.2 93.1001 129.3 93.1001 129.3 93.1001V79.1001Z" fill="#F2B4A3"/>
<path d="M77.5998 83.1002C77.5998 83.1002 75.5998 80.1002 72.1998 81.2002C69.7998 82.0002 69.5998 89.6002 72.8998 93.6002C76.1998 97.6002 79.9998 96.9002 79.9998 96.9002L77.5998 83.1002Z" fill="#F2B4A3"/>
<path d="M128.1 77.2C128.1 77.2 123.4 64.3 111.3 65.2C99.4001 66.2 92.2001 53.7 92.2001 53.7C92.2001 53.7 94.0001 65.6 84.8001 71.9C75.6001 78.3 79.0001 94.2 79.0001 94.2C79.0001 94.2 75.3001 91.3 75.4001 83C75.4001 83 72.1001 85.8 69.4001 89.9C67.7001 92.5 66.1001 96.4 66.1001 97.8C66.1001 97.8 64.0001 83.8 65.5001 70C67.4001 53.5 71.2001 41.8 89.6001 42.1C89.6001 42.1 109.4 30.7 123.8 48.6C138.2 66.4 137.1 84 137.1 84C137.1 84 135.6 81.6 132.7 79.7C132.7 79.7 133.5 85.1 130.4 88.8C130.4 88.8 130.2 85.2 127.9 77" fill="#1F2C53"/>
<path d="M95.4003 82.8C95.7003 84.4 95.0003 85.8 93.9003 86C92.8003 86.2 91.7003 85 91.5003 83.4C91.2003 81.8 91.9003 80.4 93.0003 80.2C94.1003 80 95.2003 81.2 95.4003 82.8Z" fill="#20396D"/>
<path d="M113.7 79.8C114 81.4 113.3 82.8 112.2 83C111.1 83.2 110 82 109.8 80.4C109.5 78.8 110.2 77.4 111.3 77.2C112.4 77 113.5 78.2 113.7 79.8Z" fill="#20396D"/>
<path d="M84.1006 78.1002C84.1006 77.1002 84.4006 76.2002 85.0006 75.3002C85.5006 74.5002 86.3006 73.7002 87.3006 73.3002C88.3006 72.9002 89.4006 72.7002 90.4006 73.0002C90.9006 73.0002 91.4006 73.3002 91.8006 73.5002C92.2006 73.7002 92.6006 74.0002 93.0006 74.3002C92.5006 74.3002 92.0006 74.3002 91.6006 74.3002H90.9006H90.6006H90.3006C89.5006 74.3002 88.7006 74.6002 88.0006 74.9002C87.3006 75.2002 86.6006 75.7002 86.0006 76.3002C85.4006 76.9002 84.8006 77.6002 84.2006 78.3002" fill="#20396D"/>
<path d="M118.9 72.3001C118.1 71.8001 117.3 71.3001 116.5 71.0001C115.7 70.7001 114.9 70.4001 114.2 70.4001C113.4 70.4001 112.6 70.4001 111.8 70.6001H111.5L111.2 70.8001L110.6 71.0001C110.2 71.2001 109.8 71.4001 109.3 71.5001C109.6 71.1001 109.9 70.7001 110.2 70.3001C110.6 70.0001 110.9 69.6001 111.4 69.4001C112.3 68.9001 113.4 68.6001 114.4 68.7001C115.5 68.7001 116.5 69.2001 117.2 69.9001C118 70.5001 118.6 71.3001 118.9 72.3001Z" fill="#20396D"/>
<g style="mix-blend-mode:multiply" opacity="0.5">
<path d="M102.601 94.7C102.601 94.7 104.501 94.7 106.301 94.4C107.501 94.2 108.201 93 107.901 91.9L105.101 81.8L109.701 92.1C110.101 93 109.801 94 109.001 94.6C107.801 95.4 105.601 96.2 102.601 94.7Z" fill="#F2B4A3"/>
</g>
<path d="M97.2998 99.4001L114.5 97.1001C115.3 101.9 112.1 106.4 107.3 107C102.6 107.6 98.0998 104.2 97.2998 99.4001Z" fill="#AE494D"/>
<path d="M99.8998 102.4C104 100.3 108.9 101.5 111.7 105C110.5 106 109 106.8 107.3 107C103.9 107.5 100.7 105.8 98.7998 103.1C99.1998 102.9 99.4998 102.6 99.8998 102.4Z" fill="#EF8990"/>
<path d="M130.8 59.6001C130.8 59.6001 87.8 65.4001 82.5 66.1001C70.6 67.8001 65.7 68.2001 65.7 69.3001L65.5 55.8001C66 44.4001 67.4 34.0001 99 30.5001C111.9 29.1001 119.6 33.1001 124 37.3001C129 42.1001 130.9 59.6001 130.9 59.6001" fill="#1A3C6D"/>
<path d="M130.9 58.6002C130.9 58.6002 124.9 56.5002 104.8 59.1002C82.8004 62.0002 69.9004 67.4002 69.9004 67.4002C69.9004 67.4002 73.8004 76.9002 82.0004 74.4002C99.0004 69.2002 108.5 66.6002 137.6 67.3002C142.1 67.4002 133 60.5002 130.8 58.6002" fill="#256CB0"/>
<path d="M113.8 262.8C112.9 262.8 112.2 262.1 112.2 261.2C112.2 260.3 112.9 259.6 113.8 259.6C114.7 259.6 115.4 260.3 115.4 261.2C115.4 262.1 114.7 262.8 113.8 262.8ZM113.8 260.1C113.2 260.1 112.7 260.6 112.7 261.2C112.7 261.8 113.2 262.3 113.8 262.3C114.4 262.3 114.9 261.8 114.9 261.2C114.9 260.6 114.4 260.1 113.8 260.1Z" fill="#1F2C53"/>
<path d="M71.2 123.5C71.2 123.5 63.3 123.2 63.1 135.6C62.9 148 65.2 161.3 67.7 161.6C70.1 161.8 72.6 147.9 72.6 141.5C72.6 135.1 71.2 123.5 71.2 123.5Z" fill="#1F2C53"/>
<path d="M61.4008 148.7L64.4008 146.6C64.4008 146.7 65.6008 161.2 69.3008 162.4C67.6008 165.9 63.2008 174 60.8008 177C61.3008 170.2 61.1008 152.3 61.4008 148.8V148.7Z" fill="#1A3C6D"/>
<path d="M150.4 140.1C150.4 140.1 176.4 177.9 175 184.8C173.6 191.7 167.9 192.8 167 193.2C160.5 196.2 133.5 152.3 133.5 152.3L150.4 140.2V140.1Z" fill="#F2B4A3"/>
<g style="mix-blend-mode:multiply" opacity="0.5">
<path d="M150.4 140.1C150.4 140.1 176.4 177.9 175 184.8C173.6 191.7 167.9 192.8 167 193.2C160.5 196.2 133.5 152.3 133.5 152.3L150.4 140.2V140.1Z" fill="#F2B4A3"/>
</g>
<path d="M125.5 122.9C121.9 124.6 124.1 131.4 108.1 130.8C91.4004 130.1 89.4004 118.7 74.1004 121.1C74.1004 121.1 59.5004 124.7 44.9004 139.3L59.5004 158.7L70.7004 147.5C70.7004 147.5 75.3004 163.5 76.8004 181C78.4004 198.5 76.4004 210.6 67.9004 227.8C58.2004 247.4 57.9004 256.4 57.9004 256.4C57.9004 256.4 106.3 279.5 155.4 256C155.4 256 155.9 242.9 147.7 222.9C139.4 203 134.7 188.9 139.1 181.8C143.4 174.7 148.7 165.5 139.3 151.4L143.9 157.7L156.6 149.1C156.6 149.1 149.7 136.4 146.9 132.3C143.9 127.8 139.7 123.1 135.1 122.5C126.4 121.5 125.5 123 125.5 123" fill="white"/>
<path d="M116.5 182.7C116.5 182.7 101.9 190.9 91.6 184.2C81.2 177.5 79.5 167.3 79.5 167.3C79.5 167.3 82.5 188.8 97.4 189.8C112.2 190.7 116.6 182.7 116.6 182.7" fill="#55AC32"/>
<path d="M67.0999 160.5C67.2999 161 67.5999 161.2 67.8999 160.9C68.9999 159.9 69.7999 156.2 70.1999 154.4C73.3999 140.4 68.7999 129.9 65.9999 125.2C65.6999 124.7 65.0999 124.5 64.5999 124.8L61.7999 126.3C61.7999 126.3 62.8999 123.1 63.8999 122.4C64.3999 122.1 72.2999 119.9 75.4999 119.7C83.1999 119.3 89.8999 121 91.2999 121C92.6999 121 94.1999 118.8 94.6999 118.1C94.8999 117.8 95.2999 117.8 95.4999 118C96.6999 119.2 101.7 122 104.7 123.1C106 123.6 106.2 124.2 106.3 124.9C106.3 124.9 106.9 127.7 107.1 127.9L108.9 127.7L109.2 124.8C109.4 123.8 109.7 123.4 110.6 123.2C115.1 122 117.8 119.7 119 118.8C119.3 118.6 119.6 118.6 119.9 118.8C120.5 119.4 121.6 122.3 123.8 121.9C126.7 121.4 133.6 121.1 136.9 121C138 121 139 121.6 139.5 122.6C141 125.8 144.4 133.7 148.1 147.6C154.3 170.9 148.9 172.2 152.4 201.7C153.7 212.8 157 247.7 157.7 256C157.8 257.1 157.2 258.1 156.1 258.5C151.1 260.4 135.2 265.8 112.2 267C89.5999 268.2 65.9999 264.1 57.4999 262.5C55.5999 262.1 54.3999 260.4 54.4999 258.6C55.5999 245.6 59.0999 197.9 61.1999 170.5C63.5999 167.5 65.3999 163.9 67.0999 160.4V160.5Z" fill="#1A3C6D"/>
<path d="M92.9002 122C92.9002 122 93.1002 122.2 93.2002 122.3C92.8002 121.9 92.7002 121.6 92.7002 121.6C92.7002 121.6 92.9002 121.8 93.3002 122.2C93.7002 122.6 94.3002 123.1 95.1002 123.7C95.5002 124 96.0002 124.3 96.5002 124.6C97.0002 124.9 97.6002 125.2 98.2002 125.5C99.4002 126.1 100.8 126.6 102.2 126.9C103.7 127.3 105.1 127.4 106.5 127.4C106.8 127.4 107.2 127.4 107.5 127.4C107.7 127.4 107.8 127.4 108 127.4H108.2C108.2 127.4 108.3 127.4 108.4 127.4C108.7 127.4 109 127.4 109.3 127.4C109.6 127.4 109.8 127.4 110.1 127.3C110.4 127.3 110.6 127.3 110.8 127.2C111 127.2 111.2 127.2 111.4 127.1C111.4 127.1 111.4 127.1 111.5 127.1H111.7C111.9 127.1 112.1 127.3 112.3 127.4C112.5 127.6 112.7 127.8 112.7 128V128.2C112.7 128.3 112.7 128.4 112.7 128.5C112.7 128.7 112.8 128.9 112.9 129.2C113.8 132.8 114.7 136.7 115.5 141C116.3 145.3 117.1 149.8 117.8 154.7C117.8 155.3 117.9 155.9 118 156.5C118 157.1 118.1 157.7 118.2 158.4C118.2 159 118.3 159.6 118.4 160.3C118.4 160.6 118.4 160.9 118.4 161.2C118.4 161.5 118.4 161.8 118.4 162.2C118.4 162.8 118.4 163.5 118.5 164.1C118.5 164.7 118.5 165.4 118.5 166C118.5 167.3 118.5 168.6 118.5 169.9C118.5 172.6 118.3 175.3 118.1 178C117.8 180.7 117.4 183.5 117 186.3C116.6 189.1 116.2 191.8 116 194.5C115.9 195.9 115.8 197.2 115.8 198.5C115.8 198.8 115.8 199.2 115.8 199.5C115.8 199.8 115.8 200.2 115.8 200.5C115.8 201.2 115.8 201.8 115.8 202.5C116 207.8 116.3 212.9 116.6 217.7C117.2 227.4 117.7 236.2 118.2 243.5C118.3 245.3 118.4 247.1 118.5 248.7C118.5 250.4 118.7 251.9 118.8 253.4C119 256.3 119.1 258.8 119.3 260.9C119.3 261.9 119.4 262.8 119.5 263.6C119.5 264 119.5 264.4 119.3 264.7C119.2 265 119 265.3 118.8 265.5C118.6 265.7 118.4 265.8 118.2 265.9C118 265.9 117.9 266 117.7 266.1C117.7 266.1 117.6 266.1 117.5 266.1C117.5 266.1 117.5 266.1 117.4 266.1H117.3C117.3 266.1 117.3 266.1 117.4 266.1C117.4 266.1 117.4 266.1 117.5 266.1C117.5 266.1 117.6 266.1 117.7 266.1C117.8 266.1 118 266.1 118.2 265.9C118.4 265.9 118.6 265.7 118.8 265.5C119 265.3 119.2 265.1 119.3 264.8C119.4 264.5 119.5 264.1 119.5 263.7C119.5 262.9 119.3 262 119.3 261C119.1 258.9 118.9 256.4 118.7 253.5C118.5 250.6 118.3 247.3 118 243.6C117.5 236.3 116.8 227.5 116.2 217.8C115.9 212.9 115.6 207.8 115.3 202.5C115.3 201.8 115.3 201.2 115.3 200.5C115.3 200.2 115.3 199.8 115.3 199.5C115.3 199.2 115.3 198.8 115.3 198.5C115.3 197.1 115.3 195.8 115.5 194.4C115.7 191.7 116.1 188.9 116.5 186.1C116.9 183.3 117.4 180.6 117.6 177.9C117.9 175.2 118 172.5 118 169.9C118 168.6 118 167.3 118 166C118 165.4 118 164.7 118 164.1C118 163.5 118 162.8 117.9 162.2C117.9 161.9 117.9 161.6 117.9 161.3C117.9 161 117.9 160.7 117.9 160.4C117.9 159.8 117.8 159.1 117.7 158.5C117.7 157.9 117.6 157.3 117.5 156.7C117.5 156.1 117.4 155.5 117.3 154.9C116.7 150.1 116 145.5 115.2 141.3C114.4 137 113.5 133.1 112.7 129.5C112.7 129.3 112.6 129.1 112.5 128.8C112.5 128.7 112.5 128.6 112.5 128.5V128.3C112.4 127.9 112 127.7 111.6 127.5C111.6 127.5 111.4 127.5 111.3 127.5H111.2C111 127.5 110.8 127.6 110.6 127.7C110.5 127.7 110.4 127.7 110.3 127.7C110.2 127.7 110.1 127.7 110 127.7C109.9 127.7 109.8 127.7 109.6 127.7C109.5 127.7 109.4 127.7 109.2 127.7C108.9 127.7 108.6 127.7 108.3 127.8H108.1H107.9C107.7 127.8 107.6 127.8 107.4 127.8C107.1 127.8 106.7 127.8 106.4 127.8C105 127.8 103.5 127.8 102 127.4C100.5 127 99.1002 126.5 97.9002 125.8C97.3002 125.5 96.8002 125.1 96.3002 124.8C95.8002 124.4 95.4002 124.1 95.0002 123.8C94.4002 123.2 93.9002 122.7 93.5002 122.3C93.3002 122.1 93.1002 121.9 93.0002 121.7C92.8002 121.5 92.7002 121.4 92.7002 121.4C92.7002 121.4 92.7002 121.5 93.0002 121.7" fill="#1F2C53"/>
<path d="M120.301 123.5C119.801 124.1 119.001 124.9 117.901 125.6C116.801 126.3 115.801 126.6 115.001 126.8C114.601 126.9 114.301 126.9 114.101 127C113.901 127 113.801 127 113.801 127C113.801 127 113.901 127 114.101 126.9C114.301 126.9 114.601 126.7 115.001 126.5C115.701 126.2 116.701 125.7 117.701 125.1C118.701 124.5 119.601 123.9 120.201 123.4C120.801 122.9 121.201 122.5 121.201 122.5C121.201 122.5 121.201 122.6 121.001 122.8C120.901 123 120.701 123.3 120.501 123.6" fill="#1F2C53"/>
<path d="M108.2 137.2C108.6 138.8 109.1 140.8 109.6 143.1C110.1 145.4 110.5 148.1 110.9 151.1C111.3 154.1 111.6 157.3 111.8 160.8C112 164.3 112.1 168.1 112 172C112 176 111.6 180.1 111 184.4C110.7 186.5 110.4 188.7 110.1 190.9C109.8 193.1 109.5 195.3 109.4 197.6V198V198.4C109.4 198.7 109.4 199 109.4 199.2C109.4 199.5 109.4 199.8 109.4 200C109.4 200.3 109.4 200.6 109.4 200.8C109.4 201.4 109.4 201.9 109.4 202.5C109.4 203.1 109.4 203.6 109.4 204.2C109.4 204.8 109.4 205.3 109.4 205.9C109.4 206.5 109.4 207 109.4 207.5C109.4 208.6 109.4 209.7 109.5 210.7C109.5 211.8 109.5 212.8 109.6 213.9C109.6 215 109.6 216 109.7 217C109.8 219.1 109.9 221.1 110 223.1C110.4 231 110.8 238.1 111.2 244.1C111.9 256 112.3 263.4 112.3 263.4C112.3 263.4 111.7 256 110.8 244.1C110.4 238.1 109.9 231 109.4 223.1C109.3 221.1 109.2 219.1 109.1 217C109.1 216 109 214.9 108.9 213.9C108.9 212.8 108.9 211.8 108.7 210.7C108.7 209.6 108.7 208.5 108.6 207.4C108.6 206.9 108.6 206.3 108.6 205.8C108.6 205.2 108.6 204.7 108.6 204.1C108.6 203.5 108.6 203 108.6 202.4C108.6 201.8 108.6 201.3 108.6 200.7C108.6 200.4 108.6 200.1 108.6 199.8C108.6 199.5 108.6 199.2 108.6 198.9C108.6 198.6 108.6 198.3 108.6 198V197.6V197.2C108.8 194.9 109 192.7 109.3 190.5C109.6 188.3 109.9 186.1 110.2 184C110.8 179.7 111.1 175.6 111.2 171.7C111.3 167.8 111.2 164 111.1 160.5C110.9 157 110.7 153.7 110.3 150.8C110 147.8 109.6 145.2 109.1 142.8C108.7 140.5 108.2 138.5 107.8 136.9C107.4 135.3 107 134 106.7 133.2C106.4 132.4 106.2 131.9 106.2 131.9C106.2 131.9 106.4 132.3 106.7 133.1C107 133.9 107.4 135.2 107.9 136.8" fill="#1F2C53"/>
<path d="M147.801 180.4C142.101 182.3 131.401 183.7 126.801 183.8C125.501 183.8 124.601 182.7 124.701 181.5C125.101 177.7 125.401 173 125.201 166.5C125.201 163.2 124.901 160.5 124.601 158.2C138.501 157.2 144.601 155.2 147.101 153.9C147.601 155.6 148.101 157.7 148.601 160.1C150.101 167.2 149.201 176.3 148.701 179.5C148.701 180 148.301 180.4 147.901 180.5" fill="#1F2C53"/>
<path d="M149.501 227.4C150.601 234.6 150.901 241.3 151.001 244.3C151.001 245.3 150.401 246.3 149.401 246.6C143.801 248.5 133.101 248.7 128.401 248.7C127.101 248.7 126.101 247.7 126.101 246.4C126.101 244.6 126.001 241.5 125.701 236.1C125.501 230.8 125.101 226.4 124.801 223C135.701 222.9 143.701 221 148.201 219.5C148.501 221.7 148.901 224.3 149.401 227.4" fill="#1F2C53"/>
<path d="M108.4 159.5C108.4 160.9 108.5 162.5 108.5 164.2C108.5 173.7 108.2 180.7 107.6 184.4C107.4 185.6 106.4 186.6 105.2 186.7C98.3002 187.5 84.1002 187.2 78.1002 186.4C76.4002 186.2 75.2002 184.5 75.5002 182.8C76.1002 178.9 77.1002 171.8 77.3002 165C77.3002 162.5 77.3002 160.4 77.4002 158.6C81.3002 159.6 86.0002 160.1 90.7002 160.2C97.1002 160.4 103.6 160 108.4 159.5Z" fill="#1F2C53"/>
<path d="M75.4007 223.2C79.1007 224.2 83.4007 224.7 87.8007 224.8C93.9007 225 100.201 224.5 105.201 223.9C105.301 226.2 105.501 228.9 105.601 231.9C105.901 242.6 105.301 246.9 104.901 248.6C104.701 249.3 104.201 249.8 103.601 249.9C97.1007 251.4 82.5007 249.5 76.5007 248.7C75.3007 248.5 74.4007 247.3 74.7007 246C75.1007 244.2 75.4007 240.8 75.5007 234.9C75.5007 230.2 75.5007 226.3 75.5007 223.2" fill="#1F2C53"/>
<path d="M145.101 147.3C145.101 147.3 133.201 149.6 122.801 150.5C122.801 150.5 123.701 152.7 124.401 157.1C133.601 156.4 139.101 155.3 142.401 154.4C144.601 153.8 146.001 153.2 146.801 152.8C145.801 149.2 145.101 147.3 145.101 147.3ZM136.801 153.9C136.201 153.9 135.801 153.4 135.801 152.8C135.801 152.2 136.301 151.8 136.901 151.8C137.501 151.8 137.901 152.3 137.901 152.9C137.901 153.5 137.401 153.9 136.801 153.9Z" fill="#1F2C53"/>
<path d="M107.3 150.8C107.3 150.8 86.2 152 77.5 150.4C77.5 150.4 77.5 152.6 77.5 157.4C86.5 159.9 100 159.2 108.4 158.3C108.1 153.6 107.4 150.7 107.4 150.7M92.7 156.8C92.1 156.8 91.7 156.3 91.7 155.7C91.7 155.1 92.2 154.7 92.8 154.7C93.4 154.7 93.8 155.2 93.8 155.8C93.8 156.4 93.3 156.8 92.7 156.8Z" fill="#1F2C53"/>
<path d="M124.801 215.9C124.501 215.9 124.201 216.2 124.301 216.6C124.401 217.5 124.701 219.4 124.901 222C132.101 222 137.901 221.1 141.801 220.2C144.501 219.6 146.701 219 148.301 218.4C147.901 215.7 147.701 213.9 147.501 213C147.501 212.7 147.101 212.4 146.801 212.5C144.101 213.1 133.201 215.3 124.801 215.8M136.601 219.2C136.001 219.2 135.601 218.7 135.601 218.1C135.601 217.5 136.101 217.1 136.701 217.1C137.301 217.1 137.701 217.6 137.701 218.2C137.701 218.8 137.201 219.2 136.601 219.2Z" fill="#1F2C53"/>
<path d="M76.4004 215.4C75.7004 215.3 75.1004 215.9 75.2004 216.6C75.2004 217.8 75.3004 219.6 75.4004 222.1C84.1004 224.6 96.5004 223.9 105.1 222.8C104.9 220.1 104.7 218.2 104.6 217C104.6 216.4 104 215.9 103.4 216C99.9004 216.3 87.9004 217 76.4004 215.3M89.2004 221.8C88.6004 221.8 88.2004 221.3 88.2004 220.7C88.2004 220.1 88.7004 219.7 89.3004 219.7C89.9004 219.7 90.3004 220.2 90.3004 220.8C90.3004 221.4 89.8004 221.8 89.2004 221.8Z" fill="#1F2C53"/>
<path d="M116.801 175C116.801 175 116.801 175 116.901 175C117.201 175 117.401 174.8 117.501 174.5C122.101 158.9 123.301 145.3 123.601 136.7C123.901 127.3 123.001 121.5 123.001 121.4C123.001 121 122.601 120.8 122.201 120.8C121.801 120.8 121.601 121.2 121.601 121.6C121.601 121.6 122.401 127.4 122.201 136.7C122.001 145 120.801 157.9 116.601 172.6C114.501 168.9 108.201 157.7 100.801 142.7C96.0005 133 91.8005 120.3 91.8005 120.1C91.7005 119.7 91.3005 119.6 91.0005 119.7C90.6005 119.8 90.5005 120.2 90.6005 120.5C90.6005 120.6 94.8005 133.5 99.7005 143.3C109.001 162 116.301 174.6 116.401 174.7C116.501 174.9 116.701 175 117.001 175" fill="white"/>
<path d="M122.501 196.6L110.701 197C109.401 197 108.401 196.1 108.401 194.9L108.101 174.1C108.101 172.9 109.101 171.9 110.401 171.9L122.101 171.5C123.401 171.5 124.401 172.4 124.401 173.6L124.701 194.4C124.701 195.6 123.701 196.6 122.401 196.6" fill="#B3B7B7"/>
<path d="M110.6 197.4C109.9 197.4 109.2 197.1 108.7 196.7C108.2 196.2 108 195.6 108 195L107.7 174.2C107.7 172.8 108.9 171.6 110.4 171.6L122.1 171.2C122.9 171.2 123.6 171.4 124.1 171.9C124.6 172.4 124.8 173 124.8 173.6L125.1 194.4C125.1 195.8 123.9 197 122.4 197L110.6 197.4ZM122.5 196.2C123.6 196.2 124.5 195.3 124.5 194.3L124.2 173.5C124.2 173.1 124 172.6 123.7 172.3C123.3 171.9 122.8 171.7 122.3 171.8L110.6 172.2C109.5 172.2 108.6 173.1 108.6 174.1L108.9 194.9C108.9 195.3 109.1 195.8 109.4 196.1C109.8 196.5 110.3 196.7 110.9 196.6L122.7 196.2" fill="white"/>
<path d="M113.801 225.7C112.901 225.7 112.201 224.9 112.301 224.1C112.401 223.3 113.101 222.5 113.901 222.6C114.701 222.7 115.501 223.4 115.401 224.2C115.401 225.1 114.601 225.8 113.801 225.7ZM113.901 223C113.301 223 112.801 223.5 112.701 224.1C112.701 224.7 113.201 225.2 113.801 225.3C114.401 225.3 114.901 224.8 115.001 224.2C115.001 223.6 114.501 223.1 113.901 223Z" fill="#1F2C53"/>
<path d="M115.1 166.2C114.2 166.2 113.5 165.4 113.6 164.6C113.6 163.7 114.4 163 115.2 163.1C116 163.2 116.8 163.9 116.7 164.7C116.7 165.6 115.9 166.3 115.1 166.2ZM115.2 163.5C114.6 163.5 114.1 164 114 164.6C113.9 165.2 114.5 165.7 115.1 165.8C115.7 165.9 116.2 165.3 116.3 164.7C116.4 164.1 115.8 163.6 115.2 163.5Z" fill="#1F2C53"/>
<path d="M110.7 135.8C109.8 135.8 109.1 135 109.2 134.2C109.2 133.3 110 132.6 110.8 132.7C111.6 132.8 112.4 133.5 112.3 134.3C112.3 135.2 111.5 135.9 110.7 135.8ZM110.8 133.1C110.2 133.1 109.7 133.6 109.6 134.2C109.6 134.8 110.1 135.3 110.7 135.4C111.3 135.5 111.8 134.9 111.9 134.3C112 133.7 111.4 133.2 110.8 133.1Z" fill="#1F2C53"/>
<path d="M180 135.1V137.8C180 137.8 176.5 142.9 174.2 144.1C171.9 145.3 169.9 146.5 169.8 147.2C169.7 147.9 170.4 156.1 171.9 160.2C173.5 164.3 179.5 175 178.3 181.7C177.1 188.3 175.6 194.4 171.6 194.9C167.6 195.4 160.8 191.3 158.2 186.4C155.5 181.6 155.8 169.1 156.3 165C156.8 160.9 158.9 147.9 158.9 145.1C158.9 142.3 156.7 138.8 156.7 138.8L156 134.1L173.5 130.1L179.8 135.1H180Z" fill="#F2B4A3"/>
<path d="M170.7 102.4L149.9 106.9L154.8 121.2L159.9 124.9L164.4 138.4C164.7 139.4 165.6 140.1 166.6 140.3C168.1 140.6 170.5 140.6 173.2 139.2C178.6 136.5 178.7 134.9 178.7 134.9L170.7 102.5V102.4Z" fill="#1A3C6D"/>
<path d="M175.2 109.8C174.6 109.2 171.8 108 169.8 108.3C167.8 108.7 164.8 110.6 165.3 111.9C165.8 113.2 168.6 113.3 169.6 113.2C170.7 113 172.4 113.2 172.4 113.2L171.8 117.8H175.1C175.1 117.8 175.7 110.4 175.1 109.8" fill="#F2B4A3"/>
<g style="mix-blend-mode:multiply" opacity="0.5">
<path d="M175.301 115.6C175.301 115.6 173.401 115.1 172.101 115.4V116.1L175.201 116.5V115.6H175.301Z" fill="#F2B4A3"/>
</g>
<path d="M161.601 126.4C161.201 125.8 161.201 125 161.601 124.3C162.501 122.5 164.801 118.4 167.201 117C170.301 115.3 175.001 115.4 175.801 116.7C176.601 118.1 177.001 121.8 177.001 121.8C177.001 121.8 166.001 125.3 165.101 127.5C165.101 127.5 162.701 128.2 161.601 126.3" fill="#F2B4A3"/>
<g style="mix-blend-mode:multiply" opacity="0.5">
<path d="M176.8 122.9C176.8 122.9 177.3 121.8 176.8 120.1C176.8 120.1 171.6 119.9 169.5 120.9C167.4 121.9 163 127.7 163 127.7L176.9 122.9H176.8Z" fill="#F2B4A3"/>
</g>
<path d="M178.7 125.6C178.7 125.6 178.5 121.4 176.9 121.1C175.6 120.8 171.2 120.5 169.5 121.6C167.7 122.7 163.4 126.5 163.1 128C162.8 129.5 163.8 131.3 164.8 131.4C165.8 131.6 168.4 131 168.4 131L178.7 125.5V125.6Z" fill="#F2B4A3"/>
<g style="mix-blend-mode:multiply" opacity="0.5">
<path d="M177.9 126L178.6 125.5V124.4L178.4 123.5C178.4 123.5 175.6 122.8 174.6 123C167.2 124.3 163.4 130 163.4 130L177.8 125.9L177.9 126Z" fill="#F2B4A3"/>
</g>
<path d="M179.801 130.9C179.801 130.9 181.801 128.9 180.701 126.2C180.001 124.6 177.101 124 176.001 123.8C175.001 123.6 171.801 124.5 170.701 125C169.601 125.5 163.501 129.1 163.201 130.6C162.801 132.1 165.201 133.5 166.701 133.1C168.201 132.7 179.801 130.9 179.801 130.9Z" fill="#F2B4A3"/>
<g style="mix-blend-mode:multiply" opacity="0.5">
<path d="M179.601 130.9C179.601 130.9 180.401 130.2 180.701 129.5C180.701 129.5 177.601 127.9 176.501 127.7C175.301 127.5 173.401 127.5 171.101 128.7C168.501 130 166.801 132.2 166.801 132.2L179.601 130.9Z" fill="#F2B4A3"/>
</g>
<path d="M178.701 134.8C178.701 134.8 176.201 133.3 174.601 133.4C173.001 133.4 171.401 134.6 169.601 134.8C167.801 135 166.701 135.3 166.101 133.8C165.501 132.3 170.001 129.7 171.301 129.1C172.601 128.5 175.601 127.6 178.701 129C181.801 130.4 182.701 133 182.201 134.3C181.601 135.6 179.101 139 179.101 139L177.201 137.6L178.801 134.7L178.701 134.8Z" fill="#F2B4A3"/>
<path d="M163.401 115.8C164.101 115.9 164.501 116.5 164.501 117.2C164.501 118 164.201 119.1 163.501 119.7C162.201 120.9 159.201 121.1 159.201 121.1C159.201 121.1 159.201 123.5 159.701 124C161.201 125.7 163.601 131 162.501 136.2C161.401 141.4 159.301 140.2 158.101 140.3C156.801 140.4 153.001 129.1 152.801 126.6C152.501 124.1 153.901 117.2 155.201 115.6C156.201 114.4 161.201 115.3 163.401 115.7" fill="#F2B4A3"/>
<path d="M139 88.3999C133.8 90.1999 131.2 96.5999 133.3 102.8C135.4 109 141.3 112.6 146.6 110.8C151.8 109 154.4 102.6 152.3 96.3999C150.2 90.1999 144.3 86.5999 139 88.3999Z" fill="#256CB0"/>
<path d="M166 75.9999C164.3 76.5999 165.1 83.2999 167.7 91.0999C170.3 98.8999 173.8 104.7 175.5 104.1C177.2 103.5 176.4 96.7999 173.8 88.9999C171.2 81.1999 167.7 75.3999 166 75.9999Z" fill="#004D96"/>
<path d="M210.5 75.6999L211.1 77.3999L221.9 109.3C221.9 109.3 214.3 103.9 197.2 101.4C180 98.8999 167.5 105.4 167.5 105.4L163.5 93.5999L162.9 91.8999L158.9 80.0999C158.9 80.0999 172.8 77.5999 184.9 65.1999C197 52.7999 199.8 43.8999 199.8 43.8999L210.6 75.7999L210.5 75.6999Z" fill="#6AB0E1"/>
<path d="M138.6 85.3001V85.7001C135.6 96.0001 139.4 107.1 148.1 113.4L175.4 104.2H175.2C166.6 97.7001 162.8 86.6001 165.8 76.3001V76.1001L138.6 85.3001Z" fill="white"/>
<path d="M195.3 81.7999C198.4 90.8999 202.8 98.9999 207.8 104.5C213.2 110.5 218.7 112.9 223.3 111.3C227.9 109.7 230.8 104.5 231.5 96.4999C232.1 89.0999 230.8 79.8999 227.7 70.7999C224.6 61.6999 220.2 53.5999 215.2 48.0999C209.8 42.0999 204.3 39.6999 199.7 41.2999C195.1 42.8999 192.2 48.0999 191.5 56.0999C190.9 63.4999 192.2 72.6999 195.3 81.7999Z" fill="#1F2C53"/>
<path d="M194 82.2C192.6 78 191.7 73.9 191.2 70.1L202.4 68.1C207.4 67.2 209.7 71 211.3 75.8L211.7 76.9C213.3 81.7 213.8 86.1 209.2 88.4L199.1 93.6C197.2 90.3 195.4 86.4 194 82.3" fill="#FCFCFC"/>
<path d="M205.801 68.8C204.201 69.3 204.201 73.6 205.801 78.2C207.401 82.9 209.901 86.2 211.501 85.7C213.101 85.2 213.101 80.9 211.501 76.3C209.901 71.6 207.401 68.3 205.801 68.8Z" fill="#69AFE0"/>
<path d="M225.901 71.5C232.101 89.8 230.701 106.8 222.801 109.5C214.901 112.2 203.401 99.5 197.201 81.2C191.001 62.9 192.401 45.9 200.401 43.2C208.301 40.5 219.801 53.2 226.001 71.5M229.601 70.2C226.401 60.8 221.801 52.5 216.701 46.8C210.801 40.2 204.501 37.6 199.101 39.4C193.701 41.2 190.301 47.1 189.601 55.9C189.001 63.6 190.401 73 193.501 82.4C196.701 91.8 201.301 100.1 206.401 105.8C212.301 112.4 218.601 115 224.001 113.2C229.401 111.4 232.801 105.5 233.501 96.7C234.101 89 232.701 79.6 229.601 70.2Z" fill="#1A3C6D"/>
<path d="M17.1001 186.6C20.0001 187 22.6001 188.8 24.2001 191.3C31.7001 202.7 43.4001 224.2 51.5001 234.3C52.3001 235.3 54.3001 232.7 55.0001 231.3C55.7001 229.9 57.3001 228.3 59.0001 228.9C59.8001 229.2 65.1001 233.8 66.5001 234.8C67.9001 235.8 71.0001 239.3 70.9001 240C70.7001 240.7 69.7001 242.1 67.4001 241C65.1001 240 62.0001 236.5 61.1001 236.3C61.1001 236.3 56.6001 244.5 54.5001 245.9C52.4001 247.3 48.2001 245.2 45.8001 243.6C43.5001 242.1 19.8001 223.5 3.60009 199.9C0.400085 192.5 6.50009 185 17.1001 186.5V186.6Z" fill="#F2B4A3"/>
<path d="M60.5002 232.3C60.5002 232.3 62.9002 230.6 65.2002 230.7C66.2002 230.7 68.3002 233.5 69.0002 234.5C69.7002 235.5 72.9002 239.1 73.9002 239.4C75.1002 239.7 77.4002 238.9 77.4002 238.4C77.4002 237.9 68.9002 224 65.8002 223.6C63.6002 223.3 60.6002 224.2 59.9002 224.6C59.2002 224.9 56.2002 229.5 56.2002 231.1L60.4002 232.3H60.5002Z" fill="#F2B4A3"/>
<path d="M60.6996 224.7C60.6996 224.7 66.7996 222.4 68.6996 222.3C70.5996 222.1 71.7996 223 73.1996 225.1C74.5996 227.2 80.1996 234 80.4996 234.5C80.7996 235 80.2996 236.4 77.8996 236.2C75.4996 236 72.2996 232.7 70.8996 231.5C69.4996 230.3 65.0996 225 65.0996 225L60.5996 224.7H60.6996Z" fill="#F2B4A3"/>
<path d="M62.9004 224.5C62.9004 224.5 64.5004 220.8 66.6004 218.4C68.7004 216 70.3004 214.7 72.4004 215.6C74.5004 216.5 79.6004 222.4 79.6004 222.8C79.6004 223.2 77.3004 224.5 75.2004 223.8C73.1004 223.1 71.7004 220.8 70.8004 220.8C69.9004 220.8 68.2004 223.8 68.2004 223.8L63.0004 224.5H62.9004Z" fill="#F2B4A3"/>
<g style="mix-blend-mode:multiply" opacity="0.5">
<path d="M60.7 224.4C60.5 224.4 60.2 224.5 60 224.6C60.5 224.4 61 224.2 61.5 224.1C62 224 62.5 223.9 63 223.8C63.5 223.8 64 223.7 64.6 223.7C64.7 223.7 64.9 223.7 65 223.7C65.1 223.7 65.3 223.7 65.4 223.7H65.6H65.7C65.8 223.7 66 223.7 66.1 223.8C66.6 224 67 224.3 67.5 224.7C67.9 225 68.3 225.4 68.7 225.8C69.4 226.5 70.1 227.3 70.8 228.1C72.1 229.7 73.3 231.4 74.5 233.1C75.1 234 75.6 234.8 76.2 235.7C76.5 236.1 76.7 236.6 77 237C77.1 237.2 77.2 237.5 77.4 237.7C77.4 237.8 77.5 237.9 77.6 238C77.6 238.1 77.7 238.2 77.7 238.4C77.7 238.3 77.6 238.2 77.5 238.1C77.5 238 77.4 237.9 77.3 237.8C77.2 237.6 77 237.4 76.9 237.2C76.6 236.8 76.3 236.3 76 235.9C75.4 235.1 74.8 234.2 74.2 233.4C73.6 232.6 73 231.7 72.4 230.9C71.8 230.1 71.2 229.3 70.5 228.5C69.9 227.7 69.2 226.9 68.5 226.2C68.1 225.8 67.8 225.5 67.4 225.1C67.2 224.9 67 224.8 66.8 224.6C66.6 224.5 66.4 224.3 66.2 224.2C66.1 224.2 66 224.2 65.9 224.1H65.7C65.6 224.1 65.4 224.1 65.3 224.1C65.2 224.1 65 224.1 64.9 224.1C64.4 224.1 63.9 224.1 63.4 224.1C62.9 224.1 62.4 224.2 61.9 224.3C61.6 224.3 61.4 224.3 61.1 224.4" fill="#F2B4A3"/>
<path d="M57.6002 228.8C58.0002 228.7 58.4002 228.6 58.8002 228.6C59.0002 228.6 59.2002 228.6 59.4002 228.7C59.6002 228.7 59.8002 228.9 59.9002 229C60.1002 229 60.2002 229.2 60.4002 229.3C60.5002 229.4 60.7002 229.5 60.8002 229.7C61.4002 230.2 61.9002 230.7 62.4002 231.3C61.7002 231 61.1002 230.5 60.5002 230.1C60.2002 229.9 59.9002 229.7 59.6002 229.5C59.5002 229.5 59.3002 229.3 59.2002 229.3C59.1002 229.3 58.9002 229.2 58.7002 229.2C58.4002 229.2 58.0002 229.2 57.7002 229.3C57.4002 229.4 57.1002 229.6 56.8002 229.8C56.2002 230.2 55.6002 230.7 55.2002 231.3C56.1002 229.6 57.3002 229.1 57.6002 228.9" fill="#F2B4A3"/>
</g>
<g style="mix-blend-mode:multiply" opacity="0.5">
<path d="M66.1 222.7C66.6 222.5 67 222.4 67.5 222.3C68 222.2 68.5 222.1 69 222C69.2 222 69.4 222 69.7 222L69.5 222.3C68.4 222.3 67.1 222.8 66.3 223C65.4 223.2 64.4 223.5 63.5 223.8C64.4 223.4 65.3 223 66.2 222.7" fill="#F2B4A3"/>
</g>
<path d="M101.9 44.5999C101.9 44.5999 101.9 44.5999 101.9 44.4999L103.4 48.5999H103.6C103.6 48.5999 103.6 48.5999 103.7 48.5999L102.2 44.3999C102.2 44.4999 102.2 44.6999 102.1 44.7999H102L101.9 44.5999Z" fill="#808080"/>
<path d="M101 50V50.3L101.6 50.1L101.5 49.8L101 50Z" fill="#808080"/>
<path d="M93.6005 51.4999C93.3005 51.4999 93.1005 51.6999 93.0005 51.9999C93.0005 52.1999 92.9005 52.5999 93.0005 52.9999C93.1005 53.3999 93.2005 53.6999 93.4005 53.8999C93.6005 54.0999 93.8005 54.1999 94.1005 54.0999C94.4005 53.9999 94.6005 53.8999 94.7005 53.5999C94.7005 53.3999 94.8005 52.9999 94.7005 52.5999C94.6005 52.1999 94.5005 51.8999 94.3005 51.6999C94.1005 51.4999 93.9005 51.3999 93.6005 51.4999ZM94.6005 53.5999C94.6005 53.7999 94.3005 53.9999 94.1005 53.9999C93.9005 53.9999 93.6005 53.9999 93.4005 53.7999C93.2005 53.5999 93.1005 53.2999 93.0005 52.8999C92.9005 52.4999 93.0005 52.1999 93.0005 51.8999C93.0005 51.6999 93.3005 51.4999 93.5005 51.4999C93.7005 51.4999 94.0005 51.4999 94.2005 51.6999C94.4005 51.8999 94.5005 52.1999 94.6005 52.5999C94.7005 52.9999 94.6005 53.2999 94.6005 53.5999Z" fill="white"/>
<path d="M93.3002 50.2999C92.5002 50.3999 91.9002 50.7999 91.6002 51.2999C91.3002 51.7999 91.2002 52.3999 91.3002 53.1999C91.4002 53.9999 91.8002 54.4999 92.3002 54.8999C92.8002 55.1999 93.5002 55.2999 94.3002 55.1999C95.1002 55.0999 95.7002 54.6999 96.0002 54.1999C96.3002 53.6999 96.4002 53.0999 96.3002 52.2999C96.2002 51.4999 95.8002 50.9999 95.3002 50.5999C94.8002 50.1999 94.1002 50.1999 93.3002 50.2999ZM95.9002 54.1999C95.6002 54.6999 95.0002 54.9999 94.2002 55.0999C93.4002 55.1999 92.8002 55.0999 92.3002 54.7999C91.8002 54.4999 91.5002 53.8999 91.4002 53.1999C91.3002 52.4999 91.4002 51.7999 91.7002 51.2999C92.0002 50.7999 92.6002 50.4999 93.4002 50.3999C94.2002 50.2999 94.8002 50.3999 95.3002 50.6999C95.8002 50.9999 96.1002 51.5999 96.2002 52.2999C96.3002 53.0999 96.2002 53.6999 95.9002 54.1999Z" fill="white"/>
<path d="M103.601 49.7H103.101L103.301 50.7999H103.801C104.001 50.6999 104.101 50.6 104.201 50.5C104.201 50.4 104.301 50.2999 104.201 50.0999C104.101 49.8999 104.101 49.8 104.001 49.7C103.901 49.7 103.801 49.7 103.601 49.7ZM104.101 50.5C104.101 50.5 103.901 50.6 103.801 50.7H103.401L103.201 49.9H103.601C103.701 49.8 103.901 49.9 104.001 49.9C104.001 49.9 104.201 50.1 104.201 50.2C104.201 50.3 104.201 50.5 104.201 50.5H104.101Z" fill="white"/>
<path d="M109.401 48.7C109.601 48.7 109.701 48.7 109.701 48.5C109.701 48.5 109.701 48.3 109.701 48.2V47.8C109.601 47.6 109.601 47.5 109.501 47.5C109.501 47.5 109.301 47.5 109.101 47.5L106.501 48C106.301 48 106.201 48 106.201 48.2C106.201 48.2 106.201 48.4 106.201 48.5L106.901 52.5C106.901 52.6 106.901 52.8 107.101 52.8C107.101 52.8 107.301 52.8 107.501 52.8L110.101 52.3C110.301 52.3 110.401 52.3 110.401 52.1C110.401 52.1 110.401 51.9 110.401 51.8V51.4C110.401 51.3 110.201 51.1 110.201 51.1C110.201 51.1 110.001 51.1 109.801 51.1L108.501 51.3V50.8L109.301 50.6C109.501 50.6 109.601 50.6 109.601 50.4C109.601 50.4 109.601 50.2 109.601 50.1V49.7C109.601 49.6 109.501 49.4 109.401 49.4C109.401 49.4 109.201 49.4 109.001 49.4L108.101 49.6V49.1L109.301 48.9L109.401 48.7ZM109.101 49.4C109.201 49.4 109.301 49.4 109.401 49.4C109.401 49.4 109.401 49.5 109.501 49.7V50.1C109.501 50.2 109.501 50.3 109.501 50.4C109.501 50.4 109.401 50.5 109.201 50.5L108.201 50.7V51.4C108.301 51.4 109.701 51.2 109.701 51.2C109.801 51.2 109.901 51.2 110.001 51.2C110.001 51.2 110.001 51.3 110.101 51.5V51.9C110.101 52 110.101 52.1 110.101 52.2C110.101 52.2 110.001 52.3 109.801 52.3L107.201 52.8C107.101 52.8 107.001 52.8 106.901 52.8C106.901 52.8 106.801 52.7 106.801 52.5L106.101 48.5C106.101 48.4 106.101 48.3 106.101 48.2C106.101 48.2 106.201 48.1 106.401 48.1L109.001 47.6C109.101 47.6 109.201 47.6 109.301 47.6C109.301 47.6 109.301 47.7 109.401 47.9V48.3C109.401 48.4 109.401 48.5 109.401 48.6C109.401 48.6 109.301 48.7 109.101 48.7L107.701 49V49.7C107.801 49.7 108.801 49.5 108.801 49.5L109.101 49.4Z" fill="white"/>
<path d="M101.601 49.8001L103.501 49.1001L101.601 49.8001Z" fill="white"/>
<path d="M105.2 48.5999C104.8 48.3999 104.3 48.3 103.7 48.4C103.7 48.4 103.7 48.4 103.6 48.4H103.4L101.9 44.2999C101.9 44.2999 101.9 44.1999 101.9 44.0999C101.9 43.9999 102.1 43.5 101.9 43C101.9 42.7 101.6 42.3999 101.4 42.2999V42.2L96.4004 43.0999C96.4004 43.0999 96.5004 43.9999 96.9004 45.0999C97.1004 45.8999 97.7004 47.2999 97.7004 47.2999C97.7004 47.4999 98.0004 47.6 98.2004 47.5C98.4004 47.5 98.4004 47.1999 98.4004 47.0999L98.0004 46L98.5004 45.7999L99.2004 47.5C99.2004 47.7 99.5004 47.8 99.7004 47.7C99.9004 47.7 99.9004 47.3999 99.9004 47.2999L99.2004 45.5L99.7004 45.2999L100.6 47.7999C100.6 47.9999 100.9 48.1 101.1 48C101.3 48 101.3 47.6999 101.3 47.5999L100.3 45.0999L100.8 44.9L101.7 47.2C101.7 47.4 102 47.5 102.2 47.4C102.4 47.4 102.4 47.1 102.4 47L101.3 44.0999H101.6C101.6 43.9999 101.6 43.9999 101.6 44.0999L102.8 47.2C102.8 47.4 102.8 47.6999 102.5 47.7999H102.3C102.1 47.9999 101.8 47.8 101.7 47.7V47.9C101.9 48.2 101.7 48.4 101.5 48.5H101.3C101 48.7 100.8 48.4999 100.7 48.2999L100.5 47.7999C100.5 47.9999 100.5 48.1999 100.2 48.2999H100C99.9004 48.3999 99.8004 48.3999 99.7004 48.2999L100.1 49.4C99.9004 49.4 99.8004 49.3999 99.8004 49.5999C99.8004 49.5999 99.8004 49.8 99.8004 49.9L100.1 51.4L98.6004 49.7999C98.6004 49.7999 98.5004 49.7 98.4004 49.7C98.4004 49.7 98.3004 49.7 98.1004 49.7H97.4004C97.2004 49.9 97.1004 49.9 97.1004 50C97.1004 50 97.1004 50.1999 97.1004 50.2999L97.8004 54.2999C97.8004 54.4 97.8004 54.5999 98.0004 54.5999C98.0004 54.5999 98.2004 54.5999 98.4004 54.5999L99.2004 54.4C99.4004 54.4 99.5004 54.4 99.5004 54.2C99.5004 54.2 99.5004 54 99.5004 53.9L99.2004 52.2999L100.7 53.9C100.7 53.9 100.8 54 100.9 54C100.9 54 101 54 101.2 54H101.9C102.1 53.8 102.2 53.8 102.2 53.7C102.2 53.7 102.2 53.5 102.2 53.4L101.6 50.2999V50L102.1 49.7999V50.0999L102.7 53.2999C102.7 53.4 102.7 53.5999 102.9 53.5999C102.9 53.5999 103.1 53.5999 103.3 53.5999L104.1 53.4C104.3 53.4 104.4 53.4 104.4 53.2C104.4 53.2 104.4 52.9999 104.4 52.7999L104.2 51.7999H104.6C105.3 51.5999 105.8 51.4 106.1 51C106.4 50.7 106.5 50.1999 106.4 49.5999C106.3 48.9999 106 48.6 105.7 48.4L105.2 48.5999ZM101 50.2999L101.6 53.4C101.6 53.5 101.6 53.6 101.6 53.7C101.6 53.7 101.5 53.7999 101.3 53.7999H100.6C100.6 53.9 100.4 53.9 100.4 53.9C100.4 53.9 100.3 53.9 100.2 53.7999L98.5004 52L98.8004 53.7999C98.8004 53.9 98.8004 53.9999 98.8004 54.0999C98.8004 54.0999 98.7004 54.2 98.5004 54.2L97.7004 54.4C97.6004 54.4 97.5004 54.4 97.4004 54.4C97.4004 54.4 97.3004 54.2999 97.3004 54.0999L96.6004 50.0999C96.6004 49.9999 96.6004 49.8999 96.6004 49.7999C96.6004 49.7999 96.7004 49.7 96.9004 49.7H97.6004C97.6004 49.6 97.8004 49.5999 97.8004 49.5999C97.8004 49.5999 97.9004 49.6 98.0004 49.7L99.7004 51.5L99.4004 49.7C99.4004 49.6 99.4004 49.5 99.4004 49.4C99.4004 49.4 99.5004 49.2999 99.7004 49.2999L100.1 50.2999H100.4C100.4 50.1999 101 50 101 50V50.2999ZM105.6 51.0999C105.3 51.3999 104.8 51.6999 104.2 51.7999H103.7L103.9 53C103.9 53.1 103.9 53.1999 103.9 53.2999C103.9 53.2999 103.8 53.4 103.6 53.4L102.8 53.5999C102.7 53.5999 102.5 53.5999 102.5 53.5999C102.5 53.5999 102.4 53.4999 102.4 53.2999L101.8 50.0999V49.7999L103.7 49.0999L103.5 48.5999H103.7C103.7 48.5999 103.7 48.5999 103.8 48.5999C104.4 48.5999 104.9 48.6 105.3 48.7C105.7 48.9 105.9 49.2999 106 49.7999C106.1 50.2999 106 50.7999 105.8 51.0999H105.6Z" fill="white"/>
<path d="M99.5002 48.1H99.7002C99.9002 47.9 100 47.7 100 47.5L100.2 48C100.2 48.3 100.6 48.4 100.8 48.3H101C101.3 48.1 101.4 47.9 101.3 47.6V47.4C101.4 47.6 101.7 47.7 101.9 47.6H102.1C102.3 47.6 102.5 47.2 102.4 47L101.2 43.9H100.9C100.9 44 100.9 44 100.9 44L102 46.9C102 47.1 102 47.3 101.8 47.3C101.6 47.3 101.4 47.3 101.3 47.1L100.4 44.8L99.9002 45L100.9 47.5C100.9 47.7 100.9 47.9 100.7 47.9C100.5 47.9 100.3 47.9 100.2 47.7L99.3002 45.2L98.8002 45.4L99.5002 47.2C99.5002 47.4 99.5002 47.6 99.3002 47.6C99.1002 47.6 98.9002 47.6 98.8002 47.4L98.1002 45.7L97.6002 45.9L98.0002 47C98.0002 47.2 98.0002 47.4 97.8002 47.4C97.6002 47.4 97.4002 47.4 97.3002 47.2C97.3002 47.2 96.7002 45.7 96.5002 45C96.1002 43.9 96.1002 43.1 96.0002 43C96.0002 43 95.8002 43 95.7002 43C95.7002 43 95.9002 44.1 96.1002 45C96.4002 45.8 97.0002 47.4 97.0002 47.4C97.0002 47.6 97.4002 47.8 97.6002 47.7H97.8002C98.0002 47.7 98.1002 47.4 98.1002 47.2L98.3002 47.6C98.3002 47.7 98.5002 47.9 98.6002 47.9C98.6002 47.9 98.8002 47.9 98.9002 47.9L99.5002 48.1Z" fill="#B71821"/>
<path d="M101.4 42.4001C101.6 42.5001 101.8 42.8001 101.9 43.1001C101.9 43.6001 101.8 44.1001 101.9 44.2001C101.9 44.2001 101.9 44.3001 101.9 44.4001V44.5001C101.9 44.5001 101.9 44.5001 102 44.5001C102 44.5001 102 44.3001 102.1 44.1001C102.2 43.7001 102.3 43.0001 102.1 42.6001C102.1 42.6001 102 42.3001 101.7 42.1001H101.6H101.5C101.5 42.1001 101.5 42.1001 101.5 42.2001L101.4 42.4001Z" fill="#B71821"/>
<path d="M91.5 139.5C91.5 139.5 91.5 139.5 91.5 139.4L92.1 143.2H92.3C92.3 143.2 92.3 143.2 92.4 143.2L91.8 139.2C91.8 139.3 91.7 139.4 91.7 139.5H91.6H91.5Z" fill="#808080"/>
<path d="M89.8008 144.1V144.4L90.3008 144.3V144L89.8008 144.1Z" fill="#808080"/>
<path d="M83.1008 144.2C82.8008 144.2 82.6008 144.3 82.5008 144.5C82.4008 144.7 82.3008 145 82.3008 145.4C82.3008 145.8 82.3008 146.1 82.5008 146.3C82.6008 146.5 82.8008 146.6 83.1008 146.6C83.4008 146.6 83.6008 146.5 83.7008 146.3C83.8008 146.1 83.9008 145.8 83.9008 145.4C83.9008 145 83.9008 144.7 83.7008 144.5C83.6008 144.3 83.4008 144.2 83.1008 144.2ZM83.6008 146.2C83.5008 146.4 83.3008 146.5 83.1008 146.5C82.9008 146.5 82.7008 146.5 82.6008 146.2C82.5008 146 82.4008 145.7 82.4008 145.4C82.4008 145.1 82.4008 144.7 82.6008 144.6C82.7008 144.4 82.9008 144.3 83.1008 144.3C83.3008 144.3 83.5008 144.3 83.6008 144.6C83.7008 144.8 83.8008 145.1 83.8008 145.4C83.8008 145.7 83.8008 146.1 83.6008 146.2Z" fill="white"/>
<path d="M83.1008 143.2C82.4008 143.2 81.8008 143.4 81.4008 143.8C81.0008 144.2 80.8008 144.7 80.8008 145.4C80.8008 146.1 81.0008 146.6 81.4008 147C81.8008 147.4 82.3008 147.6 83.1008 147.6C83.9008 147.6 84.4008 147.4 84.8008 147C85.2008 146.6 85.4008 146.1 85.4008 145.4C85.4008 144.7 85.2008 144.2 84.8008 143.8C84.4008 143.4 83.9008 143.2 83.1008 143.2ZM84.7008 147C84.3008 147.4 83.8008 147.6 83.1008 147.6C82.4008 147.6 81.8008 147.4 81.5008 147C81.1008 146.6 80.9008 146.1 80.9008 145.4C80.9008 144.7 81.1008 144.2 81.5008 143.8C81.9008 143.4 82.4008 143.2 83.1008 143.2C83.8008 143.2 84.4008 143.4 84.7008 143.8C85.1008 144.2 85.3008 144.7 85.3008 145.4C85.3008 146.1 85.1008 146.6 84.7008 147Z" fill="white"/>
<path d="M92.1006 144.3H91.6006V145.2H92.1006C92.2006 145.2 92.4006 145.2 92.4006 145.1C92.4006 145.1 92.5006 144.9 92.5006 144.7C92.5006 144.5 92.5006 144.4 92.4006 144.3C92.4006 144.3 92.2006 144.2 92.1006 144.2V144.3ZM92.4006 145C92.4006 145 92.2006 145 92.1006 145H91.7006V144.2H92.1006C92.2006 144.2 92.3006 144.2 92.4006 144.2C92.4006 144.2 92.5006 144.4 92.5006 144.5C92.5006 144.6 92.5006 144.7 92.4006 144.8V145Z" fill="white"/>
<path d="M97.4008 144.3C97.5008 144.3 97.6008 144.3 97.7008 144.3C97.7008 144.3 97.7008 144.1 97.7008 144V143.6C97.7008 143.5 97.7008 143.4 97.7008 143.3C97.7008 143.3 97.5008 143.3 97.4008 143.3H95.1008C94.9008 143.3 94.8008 143.3 94.8008 143.4C94.8008 143.4 94.8008 143.6 94.8008 143.7V147.3C94.8008 147.4 94.8008 147.5 94.8008 147.6C94.8008 147.6 95.0008 147.7 95.1008 147.7H97.4008C97.5008 147.7 97.6008 147.7 97.7008 147.7C97.7008 147.7 97.7008 147.5 97.7008 147.4V147C97.7008 146.9 97.7008 146.8 97.7008 146.7C97.7008 146.7 97.5008 146.7 97.4008 146.7H96.2008V146.2H97.0008C97.1008 146.2 97.2008 146.2 97.3008 146.2C97.3008 146.2 97.3008 146 97.3008 145.9V145.6C97.3008 145.5 97.3008 145.4 97.3008 145.3C97.3008 145.3 97.1008 145.3 97.0008 145.3H96.2008V144.8H97.4008V144.3ZM97.1008 144.9C97.2008 144.9 97.3008 144.9 97.3008 144.9C97.3008 144.9 97.3008 145 97.3008 145.2V145.5C97.3008 145.6 97.3008 145.7 97.3008 145.8C97.3008 145.8 97.2008 145.8 97.1008 145.8H96.2008V146.4H97.4008C97.5008 146.4 97.6008 146.4 97.6008 146.4C97.6008 146.4 97.6008 146.5 97.6008 146.7V147.1C97.6008 147.2 97.6008 147.3 97.6008 147.4C97.6008 147.4 97.5008 147.4 97.4008 147.4H95.1008C95.0008 147.4 94.9008 147.4 94.8008 147.4C94.8008 147.4 94.8008 147.3 94.8008 147.2V143.6C94.8008 143.5 94.8008 143.4 94.8008 143.4C94.8008 143.4 94.9008 143.4 95.1008 143.4H97.4008C97.5008 143.4 97.6008 143.4 97.6008 143.4C97.6008 143.4 97.6008 143.5 97.6008 143.7V144.1C97.6008 144.2 97.6008 144.3 97.6008 144.4C97.6008 144.4 97.5008 144.4 97.4008 144.4H96.2008V145H97.1008V144.9Z" fill="white"/>
<path d="M90.4004 144L92.2004 143.8L90.4004 144Z" fill="white"/>
<path d="M93.7004 143.6C93.4004 143.4 93.0004 143.2 92.4004 143.2C92.4004 143.2 92.4004 143.2 92.3004 143.2H92.1004L91.5004 139.4C91.5004 139.4 91.5004 139.3 91.5004 139.2C91.5004 139.1 91.8004 138.7 91.8004 138.2C91.8004 137.9 91.6004 137.6 91.5004 137.5H86.9004C86.9004 137.5 86.9004 138.3 86.9004 139.3C86.9004 140 87.3004 141.4 87.3004 141.4C87.3004 141.6 87.5004 141.7 87.7004 141.6C87.9004 141.6 87.9004 141.4 87.9004 141.2L87.7004 140.2H88.1004C88.1004 140.1 88.4004 141.7 88.4004 141.7C88.4004 141.9 88.6004 142 88.8004 141.9C89.0004 141.9 89.0004 141.7 89.0004 141.5L88.7004 139.8H89.1004C89.1004 139.7 89.5004 142 89.5004 142C89.5004 142.2 89.7004 142.3 89.9004 142.2C90.1004 142.2 90.1004 142 90.1004 141.8L89.7004 139.5H90.1004C90.1004 139.4 90.5004 141.5 90.5004 141.5C90.5004 141.7 90.7004 141.8 90.9004 141.7C91.1004 141.7 91.1004 141.5 91.1004 141.3L90.6004 138.6H90.8004L91.3004 141.5C91.3004 141.7 91.2004 142 91.0004 142H90.8004C90.6004 142 90.4004 142 90.3004 141.8V142C90.3004 142.2 90.3004 142.5 90.0004 142.5H89.8004C89.6004 142.5 89.3004 142.5 89.3004 142.2V141.7C89.3004 141.9 89.2004 142.1 88.9004 142.1H88.7004C88.7004 142.1 88.5004 142.1 88.4004 142.1L88.6004 143.1C88.5004 143.1 88.3004 143.1 88.3004 143.2C88.3004 143.2 88.3004 143.4 88.3004 143.5V144.9L87.2004 143.3C87.2004 143.3 87.1004 143.2 87.0004 143.2C87.0004 143.2 86.9004 143.2 86.8004 143.2H86.2004C86.0004 143.2 85.9004 143.2 85.9004 143.2C85.9004 143.2 85.9004 143.4 85.9004 143.5V147.1C85.9004 147.2 85.9004 147.3 85.9004 147.4C85.9004 147.4 86.1004 147.5 86.2004 147.5H86.9004C87.1004 147.5 87.2004 147.5 87.2004 147.5C87.2004 147.5 87.2004 147.3 87.2004 147.2V145.8L88.3004 147.4C88.3004 147.4 88.4004 147.5 88.5004 147.5C88.5004 147.5 88.6004 147.5 88.7004 147.5H89.3004C89.5004 147.5 89.6004 147.5 89.6004 147.5C89.6004 147.5 89.6004 147.3 89.6004 147.2V144.1H90.1004V144.3V147.2C90.1004 147.3 90.1004 147.4 90.1004 147.5C90.1004 147.5 90.3004 147.5 90.4004 147.5H91.2004C91.4004 147.5 91.5004 147.5 91.5004 147.5C91.5004 147.5 91.5004 147.3 91.5004 147.2V146.3H91.8004C92.4004 146.3 92.9004 146.2 93.2004 145.9C93.5004 145.6 93.7004 145.3 93.7004 144.7C93.7004 144.1 93.5004 143.8 93.2004 143.5L93.7004 143.6ZM89.7004 144.4V147.2C89.7004 147.3 89.7004 147.4 89.7004 147.4C89.7004 147.4 89.6004 147.4 89.4004 147.4H88.8004C88.8004 147.4 88.7004 147.4 88.6004 147.4C88.6004 147.4 88.6004 147.4 88.5004 147.3L87.3004 145.5V147.1C87.3004 147.2 87.3004 147.3 87.3004 147.3C87.3004 147.3 87.2004 147.3 87.0004 147.3H86.3004C86.2004 147.3 86.1004 147.3 86.0004 147.3C86.0004 147.3 86.0004 147.2 86.0004 147.1V143.5C86.0004 143.4 86.0004 143.3 86.0004 143.3C86.0004 143.3 86.1004 143.3 86.3004 143.3H86.9004C86.9004 143.3 87.0004 143.3 87.1004 143.3C87.1004 143.3 87.1004 143.3 87.2004 143.4L88.4004 145.2V143.6C88.4004 143.5 88.4004 143.4 88.4004 143.4C88.4004 143.4 88.5004 143.4 88.7004 143.4L88.9004 144.4H89.2004L89.8004 144.3V144.6L89.7004 144.4ZM93.7004 145.9C93.4004 146.1 93.0004 146.3 92.3004 146.3H91.9004V147.3C91.9004 147.4 91.9004 147.5 91.9004 147.5C91.9004 147.5 91.8004 147.5 91.6004 147.5H90.8004C90.7004 147.5 90.6004 147.5 90.5004 147.5C90.5004 147.5 90.5004 147.4 90.5004 147.3V144.1L92.3004 143.8V143.3C92.3004 143.3 92.3004 143.3 92.4004 143.3C93.0004 143.3 93.4004 143.4 93.7004 143.7C94.0004 143.9 94.1004 144.3 94.1004 144.8C94.1004 145.3 94.0004 145.7 93.7004 145.9Z" fill="white"/>
<path d="M88.8004 142.2H89.0004C89.2004 142.2 89.3004 142 89.4004 141.8V142.3C89.5004 142.5 89.8004 142.7 90.0004 142.6H90.2004C90.4004 142.6 90.6004 142.3 90.5004 142.1V141.9C90.5004 142.1 90.8004 142.2 91.0004 142.2H91.2004C91.4004 142.2 91.6004 141.9 91.5004 141.7L91.0004 138.8H90.8004L91.3004 141.5C91.3004 141.7 91.3004 141.8 91.1004 141.9C90.9004 141.9 90.8004 141.9 90.7004 141.7L90.3004 139.6H89.9004C89.9004 139.7 90.3004 142.1 90.3004 142.1C90.3004 142.3 90.3004 142.4 90.1004 142.5C89.9004 142.5 89.8004 142.5 89.7004 142.3L89.3004 140H88.9004C88.9004 140.1 89.2004 141.8 89.2004 141.8C89.2004 142 89.2004 142.1 89.0004 142.2C88.8004 142.2 88.7004 142.2 88.6004 142L88.3004 140.4H87.9004C87.9004 140.5 88.1004 141.6 88.1004 141.6C88.1004 141.8 88.1004 141.9 87.9004 142C87.7004 142 87.6004 142 87.5004 141.8C87.5004 141.8 87.2004 140.4 87.1004 139.7C87.0004 138.7 87.1004 138 87.1004 137.9H86.9004C86.9004 137.9 86.9004 138.9 86.9004 139.7C86.9004 140.4 87.3004 142 87.3004 142C87.3004 142.2 87.6004 142.4 87.8004 142.3H87.9004C88.1004 142.3 88.2004 142.1 88.3004 141.9V142.3C88.4004 142.4 88.5004 142.6 88.6004 142.6C88.6004 142.6 88.8004 142.6 88.9004 142.6L88.8004 142.2Z" fill="#B71821"/>
<path d="M91.4008 137.5C91.5008 137.6 91.7008 137.9 91.7008 138.2C91.7008 138.7 91.4008 139.1 91.4008 139.2C91.4008 139.2 91.4008 139.3 91.4008 139.4V139.5C91.4008 139.5 91.4008 139.5 91.5008 139.5C91.5008 139.5 91.5008 139.3 91.6008 139.2C91.8008 138.8 91.9008 138.3 91.8008 137.9C91.8008 137.9 91.8008 137.6 91.5008 137.4H91.3008L91.4008 137.5Z" fill="#B71821"/>
</g>
<defs>
<clipPath id="clip0_830_161">
<rect width="292.2" height="500.3" fill="white"/>
</clipPath>
</defs>
</svg>
